<svg xmlns="http://www.w3.org/2000/svg" width="256" height="256" viewBox="0 0 100 100"><rect width="100" height="100" rx="20" fill="#b22424"></rect><path fill="#fff" d="M70.94 64.30L70.94 64.30Q70.94 73.01 64.68 78.02Q58.42 83.02 47.25 83.02L47.25 83.02Q36.97 83.02 29.06 79.16L29.06 79.16L29.06 66.50Q35.56 69.40 40.07 70.59Q44.57 71.77 48.31 71.77L48.31 71.77Q52.79 71.77 55.19 70.06Q57.58 68.35 57.58 64.96L57.58 64.96Q57.58 63.07 56.53 61.60Q55.47 60.13 53.43 58.77Q51.38 57.40 45.10 54.42L45.10 54.42Q39.21 51.65 36.27 49.10Q33.32 46.55 31.56 43.17Q29.81 39.78 29.81 35.26L29.81 35.26Q29.81 26.73 35.59 21.85Q41.36 16.98 51.56 16.98L51.56 16.98Q56.57 16.98 61.12 18.16Q65.67 19.35 70.63 21.50L70.63 21.50L66.24 32.09Q61.10 29.98 57.73 29.15Q54.37 28.31 51.12 28.31L51.12 28.31Q47.25 28.31 45.19 30.11Q43.12 31.92 43.12 34.82L43.12 34.82Q43.12 36.62 43.96 37.96Q44.79 39.30 46.62 40.55Q48.44 41.80 55.25 45.06L55.25 45.06Q64.26 49.36 67.60 53.69Q70.94 58.02 70.94 64.30Z"></path></svg>