<svg xmlns="http://www.w3.org/2000/svg" width="256" height="256" viewBox="0 0 100 100"><rect width="100" height="100" rx="20" fill="#ff8906"></rect><path fill="#fffffe" d="M70.30 64.96L70.30 64.96Q70.30 73.36 64.24 78.19Q58.17 83.02 47.36 83.02L47.36 83.02Q35.94 83.02 29.70 79.99L29.70 79.99L29.70 72.26Q33.78 74.02 38.64 75.03Q43.50 76.04 47.71 76.04L47.71 76.04Q54.92 76.04 58.57 73.27Q62.22 70.50 62.22 65.67L62.22 65.67Q62.22 62.46 60.90 60.39Q59.58 58.33 56.48 56.53Q53.38 54.72 47.10 52.44L47.10 52.44Q38.18 49.19 34.36 44.77Q30.53 40.35 30.53 33.37L30.53 33.37Q30.53 25.85 36.18 21.41Q41.83 16.98 51.05 16.98L51.05 16.98Q60.68 16.98 68.76 20.58L68.76 20.58L66.26 27.52Q58.00 24.09 50.88 24.09L50.88 24.09Q45.17 24.09 41.94 26.56Q38.71 29.02 38.71 33.45L38.71 33.45Q38.71 36.62 39.96 38.71Q41.21 40.79 44.00 42.51Q46.79 44.22 52.77 46.42L52.77 46.42Q59.93 49.06 63.45 51.54Q66.96 54.02 68.63 57.25Q70.30 60.48 70.30 64.96Z"></path></svg>